<?xml version="1.0" standalone="no"?>
<!DOCTYPE svg PUBLIC "-//W3C//DTD SVG 20010904//EN"
 "http://www.w3.org/TR/2001/REC-SVG-20010904/DTD/svg10.dtd">
<svg version="1.0" xmlns="http://www.w3.org/2000/svg"
 width="1024.000000pt" height="1024.000000pt" viewBox="0 0 1024.000000 1024.000000"
 preserveAspectRatio="xMidYMid meet">

<g transform="translate(0.000000,1024.000000) scale(0.100000,-0.100000)"
fill="#000000" stroke="none">
<path d="M6012 9603 c-360 -223 -638 -449 -1009 -824 -277 -280 -427 -460
-625 -749 -412 -602 -678 -1204 -802 -1821 -60 -299 -70 -400 -70 -724 0 -327
15 -459 79 -710 161 -630 558 -1107 1100 -1324 566 -226 1160 -135 1532 235
179 178 283 402 283 607 0 269 -171 494 -470 620 -90 38 -281 90 -310 85 -12
-2 9 -26 69 -78 100 -89 139 -146 148 -218 15 -129 -119 -262 -309 -307 -74
-17 -239 -20 -324 -4 -383 67 -745 370 -963 807 -64 128 -83 175 -127 320
-122 403 -109 909 37 1496 57 226 148 470 269 719 68 142 221 406 289 502 32
44 85 121 119 170 189 278 633 774 912 1019 106 93 257 217 301 248 13 9 21
17 18 17 -3 1 -70 -38 -147 -86z"/>
<path d="M6377 9001 c-259 -158 -527 -424 -633 -628 -39 -74 -46 -151 -18
-205 9 -17 83 -100 165 -184 82 -85 149 -158 149 -163 0 -4 -46 -46 -102 -92
-137 -110 -388 -363 -466 -468 -101 -135 -107 -149 -107 -271 0 -96 2 -109 27
-150 24 -40 175 -195 315 -323 l52 -47 -57 -52 c-169 -154 -279 -290 -376
-463 l-44 -80 9 -158 c10 -178 27 -268 66 -339 53 -96 208 -219 354 -279 45
-19 77 -23 187 -26 72 -2 132 0 132 4 0 3 -49 56 -108 117 -190 195 -204 233
-131 347 59 91 145 194 288 344 68 71 130 145 138 163 10 25 11 49 4 108 -12
94 -27 117 -186 284 -67 69 -131 138 -143 154 -26 34 -29 91 -6 126 35 53 188
199 382 367 111 96 210 185 219 199 25 39 14 203 -19 275 -26 57 -103 141
-233 255 -62 54 -69 64 -68 96 0 19 9 50 18 69 36 69 292 311 533 503 l122 98
0 102 c0 85 -4 109 -24 151 -29 61 -132 163 -203 199 -84 42 -121 37 -236 -33z"/>
<path d="M1366 2735 c-108 -44 -166 -128 -165 -240 0 -140 77 -233 249 -306
132 -55 170 -95 151 -159 -8 -28 -20 -42 -48 -55 -54 -26 -174 -16 -280 23
l-83 31 0 -94 0 -94 73 -23 c59 -19 95 -23 202 -23 122 0 133 2 181 27 121 64
177 193 140 322 -24 80 -81 133 -222 203 -132 65 -164 95 -164 154 0 49 32 85
85 95 44 8 165 -10 206 -32 23 -12 30 -12 34 -2 3 7 13 38 24 68 10 30 22 62
26 71 10 27 -127 59 -251 59 -82 0 -109 -5 -158 -25z"/>
<path d="M3800 2746 c-112 -32 -226 -116 -276 -201 -51 -88 -67 -152 -68 -280
-2 -206 49 -324 176 -405 121 -79 328 -91 541 -33 l57 16 0 243 0 244 -180 0
-180 0 0 -84 0 -85 85 2 85 2 0 -102 0 -102 -45 -7 c-71 -10 -166 0 -210 22
-52 26 -100 99 -115 171 -20 93 -9 219 24 286 32 66 90 120 154 141 65 23 195
21 268 -3 32 -11 59 -19 60 -18 11 11 61 154 56 159 -38 37 -340 61 -432 34z"/>
<path d="M4915 2740 c-114 -45 -169 -125 -169 -245 -1 -141 59 -214 248 -305
129 -61 156 -85 156 -133 0 -117 -169 -130 -402 -32 -16 6 -18 -1 -18 -88 l0
-94 53 -17 c81 -25 153 -36 237 -36 194 0 307 91 318 256 9 143 -43 209 -243
308 -87 44 -121 66 -136 90 -35 57 -19 110 44 142 39 21 140 14 214 -14 l52
-20 27 80 c14 43 24 81 23 82 -2 2 -26 11 -54 21 -34 12 -89 19 -175 21 -107
4 -132 1 -175 -16z"/>
<path d="M6549 2746 c-211 -59 -325 -254 -305 -521 11 -148 48 -243 121 -317
105 -104 287 -144 464 -103 213 51 315 204 315 475 -1 258 -102 411 -309 466
-62 17 -224 16 -286 0z m269 -176 c75 -42 109 -113 119 -246 12 -162 -32 -293
-115 -341 -52 -31 -159 -42 -216 -23 -112 37 -164 157 -154 355 8 152 62 242
166 276 48 15 155 4 200 -21z"/>
<path d="M7621 2745 c-157 -44 -261 -157 -302 -325 -7 -30 -13 -100 -13 -155
0 -110 14 -184 50 -260 91 -196 323 -265 596 -179 l47 15 -6 72 c-3 40 -7 74
-9 76 -2 2 -25 -4 -51 -14 -26 -9 -87 -19 -135 -22 -109 -7 -162 10 -212 69
-46 54 -67 115 -73 219 -11 170 42 289 149 333 53 22 156 20 230 -5 33 -11 64
-17 69 -12 14 15 59 135 53 144 -2 5 -35 18 -72 30 -88 28 -246 35 -321 14z"/>
<path d="M1875 2665 l0 -85 133 0 132 0 0 -390 0 -390 100 0 100 0 0 390 0
390 130 0 130 0 0 85 0 85 -362 0 -363 0 0 -85z"/>
<path d="M2740 2275 l0 -475 275 0 275 0 0 80 0 80 -175 0 -175 0 0 125 0 125
160 0 160 0 0 80 0 80 -160 0 -160 0 0 110 0 110 175 0 175 0 0 80 0 80 -275
0 -275 0 0 -475z"/>
<path d="M5415 2665 l0 -85 133 0 132 0 0 -390 0 -390 100 0 100 0 0 390 0
390 130 0 130 0 0 85 0 85 -362 0 -363 0 0 -85z"/>
<path d="M8200 2275 l0 -475 100 0 100 0 0 163 0 163 45 44 c24 24 46 42 48
39 2 -2 47 -80 100 -174 53 -93 104 -183 114 -198 18 -29 18 -29 135 -30 64
-1 115 0 113 3 -31 53 -310 508 -316 516 -5 6 34 63 104 150 62 77 136 170
165 207 l54 67 -109 0 -109 0 -172 -215 -172 -215 0 215 0 215 -100 0 -100 0
0 -475z"/>
</g>
</svg>
